<?xml version="1.0" encoding="iso-8859-1"?>
<!-- Generator: Adobe Illustrator 24.0.1, SVG Export Plug-In . SVG Version: 6.00 Build 0)  -->
<svg version="1.1" id="&#x56FE;&#x5C42;_1" xmlns="http://www.w3.org/2000/svg" xmlns:xlink="http://www.w3.org/1999/xlink" x="0px"
	 y="0px" viewBox="0 0 48 48" style="enable-background:new 0 0 48 48;" xml:space="preserve">
<g>
	<circle style="fill:#FFFFFF;" cx="23.963" cy="23.63" r="6"/>
	<g>
		<path style="fill:#FFFFFF;" d="M25.787,27.612c-1.398-0.146-2.385-0.485-2.955-1.016c-0.573-0.531-0.935-1.194-1.086-1.998
			c-0.152-0.801-0.113-1.543,0.115-2.225c0.226-0.683,0.845-1.325,1.85-1.926s2.19-0.674,3.555-0.217
			c1.365,0.459,2.216,1.331,2.552,2.622c0.336,1.294,0.09,2.875-0.732,4.751c-0.824,1.876-2.145,3.622-3.963,5.238
			c-1.817,1.613-3.356,2.436-4.614,2.461c-1.261,0.023-1.386-0.263-0.381-0.864c1.005-0.601,1.992-1.404,2.959-2.399
			C24.053,31.042,24.955,29.563,25.787,27.612z"/>
	</g>
</g>
</svg>
