<?xml version="1.0" standalone="no"?><!DOCTYPE svg PUBLIC "-//W3C//DTD SVG 1.1//EN" "http://www.w3.org/Graphics/SVG/1.1/DTD/svg11.dtd"><svg t="1598867585156" class="icon" viewBox="0 0 1201 1024" version="1.1" xmlns="http://www.w3.org/2000/svg" p-id="17241" xmlns:xlink="http://www.w3.org/1999/xlink" width="234.5703125" height="200"><defs><style type="text/css"></style></defs><path d="M29.701395 35.893962h1147.255285v967.932888H29.701395z" fill="#D11216" p-id="17242"></path><path d="M75.014016 0.009132H1125.917202c41.207285 0 74.963133 33.757152 74.963133 74.964437v874.061993c0 41.258162-33.755848 74.964438-74.963133 74.964438H75.014016c-41.258162 0-75.01401-33.706276-75.01401-74.964438V74.973569C0.000006 33.766284 33.755854 0.009132 75.014016 0.009132z m346.178768 731.537592v232.492162H1125.917202c4.054459 0 7.804964-1.723275 10.541854-4.46147 2.73689-2.73689 4.460166-6.499136 4.460165-10.541854V731.546724H421.192784z m-47.643804 232.492162v-232.492162H60.010692v217.488838c0 4.042718 1.672399 7.806268 4.410594 10.541854 2.786462 2.738195 6.487395 4.46147 10.59273 4.46147h298.534964zM727.938418 60.019818v614.657512H1140.919221V74.973569c0-4.054459-1.723275-7.755392-4.460165-10.541853-2.738195-2.738195-6.487395-4.410594-10.541854-4.410594H727.938418z m-56.868089 614.657512V60.019818H75.014016c-4.105335 0-7.806268 1.672399-10.59273 4.410593-2.738195 2.786462-4.410594 6.487395-4.410594 10.541854v599.705065h611.059637z m0 0" fill="#1B1918" p-id="17243"></path><path d="M74.963139 60.019818H671.069025v614.657512H60.010692V74.973569c0-8.262851 6.690901-14.953752 14.952447-14.953751z m0 0" fill="#C4C6C7" p-id="17244"></path><path d="M1073.356649 178.877554v37.304152h-122.810443v10.492282h120.277059v119.211262h-41.86607v-85.100584h-78.409684v85.100584h-30.816757c-5.930363 19.158231-11.505896 31.272035-16.827047 36.443166a30.010561 30.010561 0 0 1-6.032116 4.560614h21.592471v-30.056219h153.625895v111.96333c0 16.370464-8.665949 24.583744-26.001761 24.583744h-32.083448v12.720408h52.053093v33.706276h-52.053093v12.265129h60.618594v34.161554H913.394684v-34.161554h62.18924v-12.265129h-53.319785v-33.706276h53.319785v-12.720408h-57.121166v-85.100584c-6.538271 16.979677-12.874342 28.180315-19.057783 33.654094l-5.372027 4.105336c6.33607 8.515929 9.529544 16.067815 9.529543 22.75741v80.082084c0 24.886393-7.857144 37.355028-23.517948 37.355027h-91.689732V548.878225h78.056158c3.193473 0 4.764119-3.040844 4.76412-9.072961v-11.404143l-13.330925 6.386946c-6.740472 3.344798-14.698065 5.017197-23.821902 5.017197h-44.400759v-31.879943h38.368643c8.059346 0 15.154648-1.977657 21.288517-5.931668l21.896426-13.178295v-7.298809l-21.896426 10.947561c-6.792653 3.040844-14.69937 4.561918-23.823206 4.561918h-33.603219v-31.879943h27.268453c8.262851 0 15.458602-1.977657 21.592472-5.930363l8.261546-4.966321h-61.88659v-35.528695h68.221356c6.133869 0 11.96248-1.673704 17.43626-5.018502h-23.77233l-6.33607-23.212689h-17.181878l6.032116 23.212689h-27.268453l-6.030812-23.212689h-11.100189v-35.480428h83.122927c4.46147 0 8.159794-3.040844 11.151066-9.122532h27.268453v-85.100585h-79.372423v85.100585h-42.170023V226.673988h121.542446v-10.492282h-121.542446v-37.304152h286.26853zM875.63395 411.420593c6.33607-5.120254 12.062928-12.723017 17.131001-22.770456a23.733194 23.733194 0 0 1-9.224285 1.836769h-13.634879l5.728163 20.933687z m22.859163-141.969978v30.461926H840.409209v-30.461926h58.083904z m0 40.954208v30.056219H840.409209v-30.056219h58.083904z m120.275754-40.954208v30.461926h-58.085209v-30.461926h58.085209z m0 40.954208v30.056219h-58.085209v-30.056219h58.085209z m8.921636 149.267482c5.677286 0 8.565501-2.281611 8.565501-6.791349v-10.948865h-22.249952v17.740214h13.684451z m-52.105274 0v-17.740214h-19.969645v17.740214h19.969645z m-19.969645-53.220642h19.969645v-15.964757h-19.969645v15.964757z m58.389164-15.964757v15.964757h22.249951v-15.964757h-22.249951z m0 0" fill="#FFFFFF" p-id="17245"></path><path d="M1075.676092 587.284698H912.343238v-36.265751h62.190545v-10.162237h-53.32109v-35.809168h53.32109v-10.61882h-57.122471v-80.665205c-5.917318 14.407157-11.606345 23.91061-17.308417 28.953897l-4.612795 3.522213c6.132565 8.463748 9.123837 15.839523 9.123837 22.55521v80.082083c0 25.48256-8.261547 38.406474-24.569394 38.406474h-92.741178v-39.45792h79.1063c0.911862 0 3.712674 0 3.712673-8.021514v-9.731745l-11.822895 5.664241c-6.842225 3.395674-15.015064 5.11895-24.278486 5.11895h-45.452204v-33.982835h39.420088c7.818009 0 14.786773-1.938522 20.717136-5.765994l21.415057-12.886082v-5.005456l-20.375351 10.188328c-6.930933 3.104766-15.092031 4.675412-24.290226 4.675411h-34.655969v-33.984139h28.319899c8.021514 0 15.092031-1.938522 21.02109-5.765993l5.043287-3.027799h-59.147091v-37.634196h69.274106c4.586704 0 9.022084-0.975784 13.240913-2.914305h-20.375351l-6.33607-23.213994h-15.02811l6.032116 23.213994h-29.435266l-6.032116-23.213994h-11.340222v-37.58332h84.175677c4.042718 0 7.387516-2.787767 10.213114-8.540715l0.279168-0.583122h26.875791v-82.996388h-77.26953v85.100585H786.036673v-121.314155h121.542446v-8.388085h-121.542446v-39.407043h288.372727v39.407043h-122.809139v8.388085h120.275754v121.314155h-43.968961v-85.100585h-76.306793v85.100585h-31.09462a261.400401 261.400401 0 0 1-2.914305 8.844668h155.552676v113.014777c0 17.004463-9.097746 25.633885-27.053207 25.633885H1015.058803v10.61882h52.053093v35.809168H1015.058803v10.162237h60.618593v36.265751z m-161.229962-2.104196h159.125766v-32.058663h-60.619899v-14.369325h52.053093v-31.60208h-52.053093v-14.825908h33.134895c16.789216 0 24.950315-7.69147 24.950315-23.530994v-110.911884H919.515508v30.056219h-25.216437l-0.596168 1.177985c-5.105905 10.137451-10.973651 17.917629-17.410169 23.125286l-0.50746 0.405707h0.696616l-3.193473 1.951567c-5.613364 3.433506-11.657221 5.169826-17.980247 5.169826h-67.16991v33.427108h64.623481l-11.505897 6.917888c-6.247363 4.029673-13.710541 6.081688-22.136457 6.081688h-26.217007v29.777051h32.553077c8.895545 0 16.76443-1.508029 23.391409-4.473211l23.378364-11.683311v9.59216L849.823954 502.893774c-6.247363 4.029673-13.608788 6.081688-21.832504 6.081688h-37.317196v29.777052h43.348008c8.933376 0 16.789216-1.647613 23.353578-4.903704l14.850695-7.121393v13.076543c0 6.715687-1.951567 10.124406-5.815566 10.124406h-77.003408v35.250831h90.636982c15.116817 0 22.466502-11.872468 22.466502-36.303582V468.793532c0-6.373901-3.129552-13.812294-9.326037-22.123412l-0.607908-0.8362 6.196486-4.739333c5.943409-5.271579 12.266434-16.460476 18.715997-33.198816l2.02723 0.379616v84.047834h57.122471v14.825909h-53.32109v31.602079h53.32109v14.369326h-62.190545v32.059967z m-64.673052-172.531048H874.887762l-6.360856-23.213994h15.015065a22.737843 22.737843 0 0 0 8.818578-1.761107l2.623396-1.089277-0.113493 0.241337 1.481938-0.849245a29.175666 29.175666 0 0 0 5.815566-4.397548c5.14504-4.992411 10.707528-17.106215 16.560925-36.011369l0.228291-0.734447h30.537589v-85.100584h80.512575v85.100584h39.761874v-117.107066H949.493456v-12.595174h122.809138v-35.201259H788.139565v35.201259h121.542446v12.595174h-121.542446v117.107066h40.067132v-85.100584h81.476618v87.203476h-27.674159c-3.116506 6.056902-7.095303 9.123837-11.796806 9.123837h-82.071481v33.376231h10.858853l6.032116 23.213994h25.10164l-6.032117-23.213994h19.336951l6.334766 23.21269z m21.515504-21.111102l4.929794 18.018077c5.220703-4.561918 10.048744-10.94756 14.382371-19.031692a24.810731 24.810731 0 0 1-7.057472 1.013615h-12.254693z m29.105222-5.702072h17.017508v-29.537019c-4.79021 13.659665-9.326038 22.453457-13.773158 26.774038a31.545985 31.545985 0 0 1-3.24435 2.762981z m127.295394 74.887471h-14.737201v-19.843106h24.354148v12.000311c0.001305 3.57309-1.671094 7.842795-9.616947 7.842795z m-12.633004-2.102892h12.633004c6.740472 0 7.514055-3.282181 7.514055-5.739903v-9.896115h-20.147059v15.636018z m-38.419519 2.102892h-22.073841v-19.843106h22.073841v19.843106z m-19.969645-2.102892h17.866753v-15.636018h-17.866753v15.636018z m80.640419-51.116445h-24.354147v-18.068954h24.354147v18.068954z m-22.251255-2.102892h20.147059V391.539656h-20.147059v13.861866z m-38.419519 2.102892h-22.073841v-18.068954h22.073841v18.068954z m-19.969645-2.102892h17.866753V391.539656h-17.866753v13.861866z m63.153283-63.889034h-60.188101v-32.159111H1019.820313v32.159111z m-58.083905-2.102892h55.981013v-27.953327h-55.981013v27.953327z m-62.190544 2.102892h-60.188101v-32.159111h60.188101v32.159111z m-58.08521-2.102892h55.981014v-27.953327h-55.981014v27.953327zM1019.820313 300.963987h-60.188101v-32.564818H1019.820313v32.564818z m-58.083905-2.102892h55.981013v-28.35773h-55.981013v28.35773z m-62.190544 2.102892h-60.188101v-32.564818h60.188101v32.564818z m-58.08521-2.102892h55.981014v-28.35773h-55.981014v28.35773z" fill="#050404" p-id="17246"></path><path d="M166.500242 763.630173h28.687775l-32.842682 53.066707h17.181878l10.59273-14.748941h29.448312l-48.35477 68.577491h30.614556v23.619701h-61.226502v-23.619701l22.859164-31.728618h-27.928542V816.69688l30.968081-53.066707z m42.676179 141.664719v23.568825h-72.12449v-23.568825h72.12449z m92.348517-137.914214v22.860468H274.154732v117.284481h30.969386v23.618397h-92.146316v-23.618397h33.959354V790.241146h-29.651817v-22.860468h84.239599z m0 0" fill="#FFFFFF" p-id="17247"></path><path d="M306.175564 932.19547h-94.249207v-25.722593h33.959353v-115.18159h-29.650513V766.329232h86.342491v24.962055h-27.370205v115.18159h30.968081v25.722593z m-92.145011-2.102892h90.042119v-21.515505h-30.968081v-119.388678h27.370206v-20.754967h-82.135403v20.754967h29.650512v119.388678h-33.959353v21.515505z m-3.801381-0.177415h-74.228687V904.243446h74.228687v25.671717z m-72.124491-2.104197h70.021599v-21.464628h-70.021599v21.464628z m64.774806-32.615694h-63.330698V870.18234l0.202201-0.266123 21.655088-30.069264H134.479411v-23.429241l0.139584-0.253077 31.272035-53.587213h31.183328l-0.988829 1.609782-31.855157 51.458231h14.748941l10.59273-14.748942h32.020832l-1.166244 1.659354-47.187221 66.916833h29.637468v25.722592z m-61.227807-2.102892h59.12361v-21.515504h-31.589034l1.166244-1.659354 47.187221-66.916833H190.665234l-10.59273 14.748942h-19.614814l0.988829-1.609782 31.855157-51.45823h-26.190917l-30.525847 52.294429v20.768013h28.929111l-23.859733 33.123154v22.225165z" fill="#050404" p-id="17248"></path><path d="M635.792103 910.515595v-123.367474h27.928541v43.993747h13.887957v-43.993747h27.927237v123.367474h-27.927237v-49.012249h-13.887957v49.012249h-27.928541z m109.277317-38.825226h14.039281l-4.814996-43.487592a371.140824 371.140824 0 0 1-0.860986-8.21067c-0.202201-2.786462-0.455279-5.626409-0.606603-8.463748l-1.521074-0.101753a338.056805 338.056805 0 0 1-0.50746 7.399257c-0.253078 2.432936-0.558336 5.575533-1.013615 9.375609l-4.714547 43.488897z m-31.626866 38.825226l22.149503-123.367474h32.894862l22.047751 123.367474h-27.572407l-2.281612-16.21914h-17.232754l-2.38206 16.21914h-27.623283z m82.209761 0v-24.025408l33.402322-74.151719h-32.083449v-25.190347h62.545375v23.112241l-33.959353 75.064886h33.959353v25.190347h-63.864248z m77.195173 0v-123.367474h60.720346v25.545177h-33.301873v21.743796h27.572406v25.546482h-27.572406v24.975101h35.631752v25.556918h-63.050225z m0 0" fill="#FFFFFF" p-id="17249"></path><path d="M936.950463 911.567041h-65.155726v-125.470366h62.824543v27.648069h-33.300569v19.640904h27.572407v27.64807h-27.572407v22.872209h35.631752v27.661114z m-63.051529-2.104196h60.948638v-23.454027h-35.631753v-27.077992h27.572407v-23.442286h-27.572407v-23.846688h33.300569v-23.442285h-58.617454v121.263278z m-13.330925 2.104196h-65.96714l0.088708-25.507346 32.742233-72.669781h-31.513372v-27.293239h64.648266l-0.088707 24.595484-33.287524 73.581643h33.376231v27.293239z m-63.862944-2.104196h61.760052v-23.087456h-34.542475l34.542475-76.344623v-21.832504h-60.442483v23.087455h32.653525l-0.658784 1.481939-33.313614 73.949518v22.745671z m-4.915444 2.104196h-29.73922l-2.280307-16.21914h-15.407726l-2.38206 16.21914H712.187603l0.215246-1.241906 22.313873-124.22846h34.642924l0.16437 0.860985 22.265605 124.609381z m-27.915496-2.104196h25.405593l-21.668134-121.263278h-31.145496l-21.769887 121.263278h25.45647l2.38206-16.21914h19.057782l2.281612 16.21914z m-57.286841 2.104196h-30.031434v-49.012249h-11.78376v49.012249h-30.031433v-125.470366h30.031433v43.995052h11.78376v-43.995052h30.031434v125.470366z m-27.927237-2.104196h25.824345v-121.263278h-25.824345v43.995052h-15.990848v-43.995052h-25.824346v121.263278h25.824346V860.450596h15.990848v49.012249z m81.627943-36.72103h-16.38351l4.841087-44.653836c0.35483-3.027799 0.620953-5.626409 0.849244-7.780178l0.16437-1.596736c0.19046-2.395105 0.341785-4.878918 0.494415-7.349685l0.063921-1.051446 3.510473 0.228291 0.050876 0.937953c0.101753 1.925477 0.253078 3.865303 0.405707 5.777734l0.202201 2.661228c0.253078 2.762981 0.545291 5.486825 0.849245 8.172839l4.951971 44.653836zM746.235664 870.638923h11.695052l-4.675412-42.322653c-0.303954-2.686014-0.620953-5.435949-0.874031-8.223715l-0.202201-2.672969-0.113493-1.470197c-0.063922 0.988829-0.139584 1.976353-0.215247 2.965181l-0.16437 1.609782c-0.228292 2.166813-0.494414 4.777165-0.86229 7.804964L746.235664 870.638923z" fill="#050404" p-id="17250"></path><path d="M605.12928 291.499669c-131.274191-111.000592-265.741855 36.847568-265.741855 36.847569-28.689079-33.401017-74.710056-60.973424-113.382652-65.434895-65.029187-7.50101-124.178888 34.01023-132.744388 78.107035-17.58628 90.676118 49.519709 139.687062 133.909328 138.216864 56.361934-0.962738 88.699765-21.402011 138.11772-61.390871 16.21914 17.852403 51.850892 42.130888 51.850892 42.130888 97.214389 59.1497 179.880733-7.298808 179.880733-7.298809 93.158626-81.805358 8.110222-161.177781 8.110222-161.177781z m-411.968493 122.707386c-34.769462-2.786462-54.589087-21.085012-54.740411-42.119147-0.303954-41.307734 50.786401-52.915383 94.881901-45.666147 30.816757 5.017197 55.803598 21.338089 68.019155 34.312879 0.001305 0-53.066708 57.93258-108.160645 53.472415z m210.038705-27.978114c51.039478-64.673053 175.573197-102.635988 186.824711-27.927237 10.035699 66.346756-143.792397 71.718783-186.824711 27.927237z" fill="#D11216" p-id="17251"></path><path d="M500.831329 487.257757c-29.295682 0-57.945625-8.388086-85.125371-24.924225-1.532815-1.038401-33.819769-23.112241-50.684648-40.725916-50.888154 40.978994-83.288602 59.453654-137.799416 60.391607l-3.725719 0.024786c-47.934713 0-89.002414-16.447431-112.659946-45.148251-20.641474-25.025977-27.661114-58.351332-20.286644-96.378189 8.552455-44.032883 63.545944-81.222237 120.072248-81.222237 5.233748 0 10.517068 0.303954 15.699939 0.900121 37.164567 4.28275 83.262511 30.486712 113.154361 64.091235 12.608219-12.861296 79.398513-76.839038 160.252874-76.839037 38.191227 0 74.253472 14.116248 107.186166 41.967822 1.609782 1.494984 37.177613 35.239091 36.467951 82.122358-0.443538 29.663558-15.433816 57.666457-44.539038 83.237725-1.749366 1.393231-41.105533 32.502201-98.012757 32.502201zM365.578342 414.05573l1.748061 1.938522c15.813433 17.410169 51.014692 41.460363 51.369523 41.7017 26.179176 15.928231 53.853335 24.050194 82.135403 24.037148 54.993489 0 94.071792-30.892419 94.464454-31.209418 27.775912-24.391979 42.132193-51.014692 42.57573-79.043682 0.696616-44.412499-34.276353-77.637406-34.631183-77.966146-31.79254-26.888837-66.663755-40.560242-103.511323-40.560242-87.026061 0-157.604691 76.484207-158.302612 77.24344l-2.104196 2.319442-2.027229-2.369014c-28.978683-33.731062-74.874426-60.252023-111.608501-64.496942a132.975289 132.975289 0 0 0-15.06594-0.86229c-59.655856 0-107.452289 39.686211-114.649345 76.762071-7.057472 36.354458-0.443538 68.107863 19.108659 91.816271 22.617827 27.421082 62.126623 43.145807 108.415027 43.145807l3.623966-0.037831c53.598953-0.911862 85.404539-19.488275 136.430972-60.771223l2.028534-1.647613z m131.122866 3.218259c-41.245117 0-77.826562-11.151066-95.465023-29.105221l-1.710231-1.736321 1.50803-1.913736c31.005912-39.29355 90.459567-70.072475 135.354739-70.072475 32.12128 0 52.141801 15.433816 56.361934 43.449761 1.798938 11.898558-1.215816 22.517379-8.984252 31.538158-14.991583 17.43626-47.543356 27.839834-87.065197 27.839834z m-89.775997-31.273339c17.106215 15.712984 51.913509 25.760424 89.775997 25.760423 37.368073 0 69.121477-9.933946 82.882895-25.924793 6.66481-7.755392 9.262116-16.877924 7.716256-27.115824-4.828041-32.032572-30.347128-38.761304-50.91294-38.761304-42.651393 0-98.988541 28.852144-129.462208 66.041498z m-207.6436 31.209418c-2.115937 0-4.220133-0.075662-6.347811-0.253078-34.072847-2.73689-57.096381-20.754967-57.273796-44.842992-0.088708-12.189467 4.016628-22.55521 12.215558-30.816756 12.582128-12.670836 34.225476-19.652645 60.923852-19.652646 8.261547 0 16.662678 0.696616 24.950315 2.05332 31.817326 5.182872 57.375549 22.174289 69.591105 35.150383l1.748062 1.86286-1.723276 1.887645c-2.055929 2.229431-50.649426 54.611263-104.084009 54.611264z m9.515194-90.05386c-24.861607 0-45.62962 6.576103-57.007673 18.031122-7.121393 7.17227-10.694483 16.21914-10.605775 26.875792 0.152629 21.071967 21.122843 36.898445 52.192677 39.395302 47.834264 3.978796 94.438363-40.877241 104.10749-50.710738-12.240343-12.049883-35.69437-26.888837-64.62348-31.60208a148.591739 148.591739 0 0 0-24.063239-1.989398z" fill="#1B1918" p-id="17252"></path></svg>