<svg viewBox="0 0 1024 1024" version="1.1" xmlns="http://www.w3.org/2000/svg" p-id="7652" width="200" height="200"><path d="M679.605169 943.995668L344.39168 943.995668c-123.41248 0-223.480911-100.068431-223.480911-223.479335L120.910769 497.032271c0-61.766105 50.034215-111.792443 111.740455-111.792443l0-55.815877c0-154.29632 125.05088-279.351926 279.348775-279.351926 154.245908 0 279.348775 125.055606 279.348775 279.351926l0 55.815877c61.70624 0 111.740455 50.026338 111.740455 111.792443l0 223.482486C903.089231 843.928812 803.028677 943.995668 679.605169 943.995668zM456.133711 705.017698l0 71.312935c0 30.88384 24.984025 55.866289 55.866289 55.866289 30.823975 0 55.874166-24.980874 55.874166-55.866289l0-71.312935c33.221711-19.370929 55.866289-55.054966 55.866289-96.244972 0-61.764529-50.034215-111.740455-111.740455-111.740455s-111.740455 49.975926-111.740455 111.740455C400.259545 649.961157 422.844258 685.646769 456.133711 705.017698zM512 161.758917c-92.59008 0-167.60832 75.076529-167.60832 167.666609 0 19.692308 4.036135 38.302326 10.255754 55.815877l314.705132 0c6.219618-17.513551 10.254178-36.123569 10.254178-55.815877C679.605169 236.835446 604.538092 161.758917 512 161.758917z"></path></svg>