<?xml version="1.0" encoding="utf-8"?>
<!-- Generator: Adobe Illustrator 26.3.1, SVG Export Plug-In . SVG Version: 6.00 Build 0)  -->
<svg version="1.1" id="图层_1" xmlns="http://www.w3.org/2000/svg" xmlns:xlink="http://www.w3.org/1999/xlink" x="0px" y="0px"
	 viewBox="0 0 10.8 10.8" style="enable-background:new 0 0 10.8 10.8;" xml:space="preserve">
<path d="M9.1,7.5c-0.4,0-0.7,0.1-1,0.4L7.2,7.1c0,0,0-0.1,0-0.1L6.9,3.9l1.3-1c0.3,0.2,0.6,0.3,1,0.3c0.9,0,1.6-0.7,1.6-1.6
	S10,0,9.1,0S7.5,0.7,7.5,1.6c0,0.2,0.1,0.5,0.2,0.7L6.8,3C6.7,2.7,6.4,2.5,6.1,2.5H4.6C4.3,2.5,4.1,2.7,4,3L3.1,2.3
	c0.1-0.2,0.2-0.4,0.2-0.7C3.2,0.7,2.5,0,1.6,0S0,0.7,0,1.6s0.7,1.6,1.6,1.6c0.4,0,0.7-0.1,1-0.3l1.3,1L3.5,7c0,0.1,0,0.1,0,0.1
	L2.6,7.9C2.4,7.6,2,7.5,1.6,7.5C0.7,7.5,0,8.2,0,9.1s0.7,1.6,1.6,1.6S3.2,10,3.2,9.1c0-0.2-0.1-0.5-0.1-0.7l1-0.7c0.1,0,0.1,0,0.2,0
	h2.3c0.1,0,0.1,0,0.2,0l0.9,0.7C7.6,8.7,7.5,8.9,7.5,9.1c0,0.9,0.7,1.6,1.6,1.6s1.6-0.7,1.6-1.6S10,7.5,9.1,7.5z M8.2,1.6
	c0-0.5,0.4-0.9,0.9-0.9S10,1.1,10,1.6S9.6,2.5,9.1,2.5c-0.1,0-0.3,0-0.4-0.1l0.6-0.5c0.2-0.1,0.2-0.4,0.1-0.5
	C9.3,1.2,9.1,1.2,8.9,1.3L8.3,1.8C8.3,1.8,8.2,1.7,8.2,1.6z M1.6,2.5c-0.5,0-0.9-0.4-0.9-0.9s0.4-0.9,0.9-0.9s0.9,0.4,0.9,0.9
	c0,0.1,0,0.1,0,0.2L1.9,1.3C1.7,1.2,1.5,1.2,1.3,1.4C1.2,1.6,1.2,1.8,1.4,1.9L2,2.4C1.9,2.5,1.8,2.5,1.6,2.5z M2.5,9.1
	c0,0.5-0.4,0.9-0.9,0.9S0.8,9.6,0.8,9.1s0.4-0.9,0.9-0.9c0.1,0,0.3,0,0.4,0.1L1.4,8.8C1.2,9,1.2,9.2,1.3,9.4
	c0.1,0.1,0.2,0.1,0.3,0.1c0.1,0,0.2,0,0.2-0.1l0.6-0.5C2.5,9,2.5,9.1,2.5,9.1z M4.3,7l0.4-3.8H6L6.5,7H4.3z M9.1,10
	c-0.5,0-0.9-0.4-0.9-0.9c0-0.1,0-0.1,0-0.2l0.6,0.5C9,9.5,9,9.5,9.1,9.5c0.1,0,0.2,0,0.3-0.1C9.5,9.2,9.5,9,9.4,8.8L8.7,8.3
	C8.9,8.3,9,8.2,9.1,8.2c0.5,0,0.9,0.4,0.9,0.9S9.6,10,9.1,10z"/>
</svg>
