<?xml version="1.0" encoding="utf-8"?>
<!-- Generator: Adobe Illustrator 26.3.1, SVG Export Plug-In . SVG Version: 6.00 Build 0)  -->
<svg version="1.1" id="图层_1" xmlns="http://www.w3.org/2000/svg" xmlns:xlink="http://www.w3.org/1999/xlink" x="0px" y="0px"
	 viewBox="0 0 64 64" style="enable-background:new 0 0 64 64;" xml:space="preserve">
<path d="M9.7,19.3c2.2,0,4.3-0.8,5.9-2.1l7.5,6L21,42.1c0,0.2,0.1,0.3,0.1,0.5l-5.4,4.2c-1.7-1.3-3.7-2.2-6-2.2
	C4.3,44.7,0,49,0,54.3S4.3,64,9.7,64s9.7-4.3,9.7-9.7c0-1.4-0.3-2.8-0.9-4l5.6-4.4c0.3,0.1,0.6,0.2,1,0.2l14.3,0
	c0.2,0,0.4-0.1,0.5-0.2l5.6,4.4c-0.6,1.2-0.9,2.6-0.9,4c0,5.3,4.3,9.7,9.7,9.7s9.7-4.3,9.7-9.7s-4.3-9.7-9.7-9.7
	c-2.3,0-4.4,0.8-6,2.2l-5.5-4.2c0-0.3,0.1-0.6,0.1-0.9l-2-18.4l7.5-6c1.6,1.3,3.7,2.1,5.9,2.1c5.3,0,9.7-4.3,9.7-9.7S59.7,0,54.3,0
	s-9.7,4.3-9.7,9.7c0,1.5,0.4,2.9,1,4.1l-5.4,4.3c-0.4-1.8-2-3.2-3.9-3.2h-8.7c-1.9,0-3.5,1.4-3.9,3.2l-5.4-4.3c0.6-1.3,1-2.6,1-4.1
	C19.3,4.3,15,0,9.7,0C4.3,0,0,4.3,0,9.7C0,15,4.3,19.3,9.7,19.3z M9.7,59.5c-2.9,0-5.2-2.3-5.2-5.2s2.3-5.2,5.2-5.2
	c0.8,0,1.6,0.2,2.3,0.6l-3.7,2.9c-1,0.8-1.1,2.2-0.4,3.1c0.8,1,2.2,1.1,3.1,0.4l3.6-2.8c0.1,0.4,0.2,0.7,0.2,1.1
	C14.9,57.2,12.5,59.5,9.7,59.5z M49.3,53.3l3.6,2.8c1,0.8,2.4,0.6,3.1-0.4c0.8-1,0.6-2.4-0.4-3.1L52,49.7c0.7-0.4,1.5-0.6,2.3-0.6
	c2.9,0,5.2,2.3,5.2,5.2s-2.3,5.2-5.2,5.2s-5.2-2.3-5.2-5.2C49.1,54,49.3,53.6,49.3,53.3z M54.3,4.5c2.9,0,5.2,2.3,5.2,5.2
	s-2.3,5.2-5.2,5.2c-0.8,0-1.6-0.2-2.2-0.6l3.6-2.9c1-0.8,1.1-2.2,0.3-3.1c-0.4-0.6-1.1-0.8-1.7-0.8c-0.5,0-1,0.2-1.4,0.5l-3.6,2.9
	c-0.1-0.4-0.2-0.7-0.2-1.1C49.1,6.8,51.5,4.5,54.3,4.5z M28.7,31.1c0-1.7,1.5-3.1,3.3-3.1c1.8,0,3.3,1.4,3.3,3.1V39
	c0,1.7-1.5,3.1-3.3,3.1c-1.8,0-3.3-1.4-3.3-3.1V31.1z M9.7,4.5c2.9,0,5.2,2.3,5.2,5.2c0,0.4-0.1,0.8-0.2,1.1l-3.6-2.9
	c-0.4-0.3-0.9-0.5-1.4-0.5C9,7.4,8.4,7.7,7.9,8.3c-0.8,1-0.6,2.4,0.3,3.1l3.6,2.9c-0.7,0.3-1.4,0.6-2.2,0.6c-2.9,0-5.2-2.3-5.2-5.2
	S6.8,4.5,9.7,4.5z"/>
</svg>
