<svg id="图层_1" data-name="图层 1" xmlns="http://www.w3.org/2000/svg" viewBox="0 0 323.18 179.25"><path d="M42.45,174.17l.73.68-4.09,4.4L35,174.85l.73-.68,2.86,3.07V150h1v27.24Z"/><path d="M7.45,173.42l.73.68-4.09,4.4L0,174.1l.73-.68,2.86,3.07V150h1v26.49Z"/><path d="M322.45,122.67l.73.68-4.09,4.4-4.09-4.4.73-.68,2.86,3.07V100h1v25.74Z"/><path d="M287.45,121.92l.73.68-4.09,4.4L280,122.6l.73-.68,2.86,3.07V100h1v25Z"/><path d="M252.45,121.17l.73.68-4.09,4.4-4.09-4.4.73-.68,2.86,3.07V100h1v24.24Z"/><path d="M217.45,120.42l.73.68-4.09,4.4L210,121.1l.73-.68,2.86,3.07V100h1v23.49Z"/><path d="M182.45,119.67l.73.68-4.09,4.4-4.09-4.4.73-.68,2.86,3.07V100h1v22.74Z"/><path d="M147.45,118.92l.73.68-4.09,4.4L140,119.6l.73-.68,2.86,3.07V100h1v22Z"/><path d="M112.45,118.17l.73.68-4.09,4.4-4.09-4.4.73-.68,2.86,3.07V100h1v21.24Z"/><path d="M77.45,117.42l.73.68-4.09,4.4L70,118.1l.73-.68,2.86,3.07V100h1v20.49Z"/><path d="M42.45,116.67l.73.68-4.09,4.4L35,117.35l.73-.68,2.86,3.07V100h1v19.74Z"/><path d="M7.45,115.92l.73.68L4.09,121,0,116.6l.73-.68L3.59,119V100h1v19Z"/><path d="M322.45,65.17l.73.68-4.09,4.4L315,65.85l.73-.68,2.86,3.07V50h1V68.24Z"/><path d="M287.45,64.42l.73.68-4.09,4.4L280,65.1l.73-.68,2.86,3.07V50h1V67.49Z"/><path d="M252.45,63.67l.73.68-4.09,4.4L245,64.35l.73-.68,2.86,3.07V50h1V66.74Z"/><path d="M217.45,62.92l.73.68L214.09,68,210,63.6l.73-.68L213.59,66V50h1V66Z"/><path d="M182.45,62.17l.73.68-4.09,4.4L175,62.85l.73-.68,2.86,3.07V50h1V65.24Z"/><path d="M147.45,61.42l.73.68-4.09,4.4L140,62.1l.73-.68,2.86,3.07V50h1V64.49Z"/><path d="M112.45,60.67l.73.68-4.09,4.4L105,61.35l.73-.68,2.86,3.07V50h1V63.74Z"/><path d="M77.45,59.92l.73.68L74.09,65,70,60.6l.73-.68L73.59,63V50h1V63Z"/><path d="M42.45,59.17l.73.68-4.09,4.4L35,59.85l.73-.68,2.86,3.07V50h1V62.24Z"/><path d="M7.45,58.42l.73.68L4.09,63.5,0,59.1l.73-.68,2.86,3.07V50h1V61.49Z"/><path d="M322.45,7.67l.73.68-4.09,4.4L315,8.35l.73-.68,2.86,3.07V0h1V10.74Z"/><path d="M287.45,6.92l.73.68L284.09,12,280,7.6l.73-.68L283.59,10V0h1V10Z"/><path d="M252.45,6.17l.73.68-4.09,4.4L245,6.85l.73-.68,2.86,3.07V0h1V9.24Z"/><path d="M214.09,10.5,210,6.1l.73-.68,2.86,3.07V0h1V8.49l2.86-3.07.73.68Z"/><path d="M182.45,4.67l.73.68-4.09,4.4L175,5.35l.73-.68,2.86,3.07V0h1V7.74Z"/><path d="M147.45,3.92l.73.68L144.09,9,140,4.6l.73-.68L143.59,7V0h1V7Z"/><path d="M112.45,3.17l.73.68-4.09,4.4L105,3.85l.73-.68,2.86,3.07V0h1V6.24Z"/><path d="M77.45,2.42l.73.68L74.09,7.5,70,3.1l.73-.68,2.86,3.07V0h1V5.49Z"/><path d="M42.45,1.67l.73.68-4.09,4.4L35,2.35l.73-.68,2.86,3.07V0h1V4.74Z"/><path d="M7.45.92l.73.68L4.09,6,0,1.6.73.92,3.59,4V0h1V4Z"/></svg>