<svg t="1709187387378" class="icon" viewBox="0 0 1024 1024" version="1.1" xmlns="http://www.w3.org/2000/svg" p-id="26933" width="200" height="200"><path d="M128 328h768a96 96 0 0 0 0-192H128a96 96 0 0 0 0 192z m720-152a56 56 0 1 1-56 56 56 56 0 0 1 56-56z m-152 0a56 56 0 1 1-56 56 56 56 0 0 1 56-56zM896 416H128a96 96 0 0 0 0 192h768a96 96 0 0 0 0-192z m-200 152a56 56 0 1 1 56-56 56 56 0 0 1-56 56z m152 0a56 56 0 1 1 56-56 56 56 0 0 1-56 56zM896 696H128a96 96 0 0 0 0 192h768a96 96 0 0 0 0-192z m-200 152a56 56 0 1 1 56-56 56 56 0 0 1-56 56z m152 0a56 56 0 1 1 56-56 56 56 0 0 1-56 56z" p-id="26934"></path></svg>