<?xml version="1.0" encoding="utf-8"?>
<!-- Generator: Adobe Illustrator 26.3.1, SVG Export Plug-In . SVG Version: 6.00 Build 0)  -->
<svg version="1.1" id="图层_1" xmlns="http://www.w3.org/2000/svg" xmlns:xlink="http://www.w3.org/1999/xlink"
	 viewBox="0 0 921.4 916.3" style="enable-background:new 0 0 921.4 916.3;" xml:space="preserve">
<path d="M899.7,640L899.7,640c-5-5-13.1-5-18.1,0l-63,62.6c-18.6-9.4-40.1-11.5-60.2-5.9c1-5.8-0.8-12.2-5.3-16.7L620.7,548.4V366
	L753,234.5c3.9-3.9,6-9.3,5.5-14.8c20.1,5.6,41.5,3.4,60.1-6.1l63,62.6l0,0c5,5,13.1,5,18.1,0l18-18l0.1-0.1c4.9-5,4.9-13-0.1-17.9
	l-62.8-62.7c5.8-11.3,9-24,9-37.5c0-45.7-37.2-82.7-83.2-82.7c-13.1,0-26.1,3-37.8,9l-63-62.6c-5-4.9-13.1-4.9-18,0.1l-18,17.9
	l-2.4,3.4c-2.4,4.9-1.5,10.8,2.4,14.7l62.8,62.6c-9.4,18.3-11.5,39.4-6.1,59.2c-5.7-0.5-11.3,1.5-15.4,5.5l-76.6,76l-43-85.5
	c-5.4-10.8-16.5-17.6-28.6-17.6H384.5c-12.1,0-23.2,6.8-28.6,17.6l-42.8,85l-74.9-74.5c-4.2-4.3-10.3-6.2-16.2-5.3
	c5.5-19.9,3.3-41.1-6.1-59.4l62.8-62.7l0.1-0.1c4.9-5,4.9-13-0.1-17.9l-18-17.9l0,0c-5-5-13.1-5-18.1,0l-63,62.5
	c-11.3-5.8-24.2-9-37.8-9c-46,0-83.2,37.1-83.2,82.8c0,13.1,3.1,25.9,9.1,37.6l-63,62.6c0,0,0,0-0.1,0.1c-4.9,5-4.9,13,0.1,17.9
	l18,18l0,0c5,5,13.1,5,18.1,0l63-62.5c18.8,9.6,40.6,11.6,60.9,5.8c-0.5,5.6,1.6,11.1,5.6,15l130.4,129.7v183.9L169.2,680
	c-4.5,4.4-6.4,10.8-5.1,16.9c-20.4-6-42.3-3.9-61.2,5.8l-63-62.7l0,0c-5-5-13.1-5-18.1,0l-18,18c0,0,0,0-0.1,0.1
	c-4.9,5-4.9,13,0.1,17.9l62.8,62.7c-5.8,11.3-9,24-9,37.6c0,45.6,37.2,82.7,83.2,82.7c13.1,0,26.1-3.1,37.8-9l63,62.5l0,0
	c5,5,13.1,5,18.1,0l18-17.9l0.1-0.1c4.9-5,4.9-13-0.1-17.9L214.9,814c9.7-18.9,11.7-40.8,5.6-61.1c6.1,1,12.3-1,16.6-5.4l75.4-75
	l43.4,86.3c5.4,10.8,16.5,17.6,28.6,17.6h152.4c12.1,0,23.2-6.8,28.7-17.6l43.5-86.8l76,75.5v0.1c4.1,4.1,9.9,6.1,15.7,5.4
	c-6.1,20.4-4,42.3,5.8,61.1l-62.9,62.5l-0.1,0.1c-4.9,5-4.9,13,0.1,17.9l18,18l0,0c5,5,13.1,5,18.1,0l63-62.5
	c11.7,5.9,24.7,9,37.8,9s26-3,37.7-8.9c40.9-20.7,57.3-70.6,36.6-111.5l62.8-62.7c4.9-4.9,4.9-13,0-17.9L899.7,640z M783.3,93.3
	c24.5,0,44.4,19.9,44.4,44.4s-19.9,44.4-44.4,44.4s-44.4-19.9-44.4-44.4C739,113.1,758.8,93.3,783.3,93.3z M141.2,187
	c-24.5,0-44.4-19.9-44.4-44.4s19.9-44.4,44.4-44.4s44.4,19.9,44.4,44.4S165.7,187,141.2,187z M138.6,823.2
	c-24.5,0-44.4-19.9-44.4-44.4s19.9-44.4,44.4-44.4s44.4,19.9,44.4,44.4C183,803.3,163.2,823.2,138.6,823.2z M491.7,630
	c-0.1,10.6-8.6,19.1-19.2,19.1h-25.6c-10.6,0-19.1-8.5-19.2-19.1v-89.1c0-10.6,8.6-19.1,19.2-19.1h25.6c10.6,0,19.2,8.6,19.2,19.1
	V630z M781.3,824.5c-24.5,0-44.4-19.9-44.4-44.4s19.9-44.4,44.4-44.4s44.4,19.9,44.4,44.4S805.9,824.5,781.3,824.5z"/>
</svg>
