<svg id="图层_1" data-name="图层 1" xmlns="http://www.w3.org/2000/svg" viewBox="0 0 340 188"><defs><style>.cls-1{fill:#fff;}</style></defs><path d="M8,13.18A2.82,2.82,0,1,0,10.82,16,2.82,2.82,0,0,0,8,13.18Zm0,3.76A.94.94,0,1,1,8.94,16,.94.94,0,0,1,8,16.94Z"/><rect x="36" width="1.88" height="32"/><polygon points="72 0 72 32 73.88 32 73.88 1.94 80.47 1.94 80.47 0 72 0"/><polygon points="108 0 108 32 109.88 32 109.88 1.94 124 1.94 124 0 108 0"/><polygon points="160 1.94 160 0 144 0 144 32 145.88 32 145.88 6.79 152.47 6.79 152.47 4.85 145.88 4.85 145.88 1.94 160 1.94"/><polygon points="196 1.94 196 0 180 0 180 32 181.88 32 181.88 6.79 196 6.79 196 4.85 181.88 4.85 181.88 1.94 196 1.94"/><polygon points="232 1.94 232 0 216 0 216 32 217.88 32 217.88 11.64 224.47 11.64 224.47 9.7 217.88 9.7 217.88 6.79 232 6.79 232 4.85 217.88 4.85 217.88 1.94 232 1.94"/><polygon points="340 1.94 340 0 324 0 324 32 325.88 32 325.88 16.48 340 16.48 340 14.54 325.88 14.54 325.88 11.64 340 11.64 340 9.7 325.88 9.7 325.88 6.79 340 6.79 340 4.85 325.88 4.85 325.88 1.94 340 1.94"/><polygon points="16 53.94 16 52 0 52 0 84 1.88 84 1.88 73.33 8.47 73.33 8.47 71.39 1.88 71.39 1.88 68.48 16 68.48 16 66.55 1.88 66.55 1.88 63.64 16 63.64 16 61.7 1.88 61.7 1.88 58.79 16 58.79 16 56.85 1.88 56.85 1.88 53.94 16 53.94"/><polygon points="268 1.94 268 0 252 0 252 32 253.88 32 253.88 11.64 268 11.64 268 9.7 253.88 9.7 253.88 6.79 268 6.79 268 4.85 253.88 4.85 253.88 1.94 268 1.94"/><polygon points="304 1.94 304 0 288 0 288 32 289.88 32 289.88 16.48 296.47 16.48 296.47 14.54 289.88 14.54 289.88 11.64 304 11.64 304 9.7 289.88 9.7 289.88 6.79 304 6.79 304 4.85 289.88 4.85 289.88 1.94 304 1.94"/><path d="M51.06,52H36V84h1.88V58.51l13.49-4.63A1,1,0,0,0,52,52.8,1,1,0,0,0,51.06,52Zm-5.68,1.94-7.5,2.52V53.94Z"/><path d="M87.06,52H72V84h1.88V58.79h6.59V56.85H78.6l8.77-3A1,1,0,0,0,88,52.8,1,1,0,0,0,87.06,52Zm-5.68,1.94-7.5,2.52V53.94Z"/><path d="M267.06,104H252v32h1.88V110.79h6.59v-1.94H258.6l8.77-3a1,1,0,0,0,.62-1.07A1,1,0,0,0,267.06,104Z"/><path d="M114.6,56.85l8.77-3A1,1,0,0,0,124,52.8a1,1,0,0,0-.93-.8H108V84h1.88V58.79H124V56.85Zm2.78-2.91-7.5,2.52V53.94Z"/><path d="M294.6,108.85l8.77-3a1,1,0,0,0,.62-1.08,1,1,0,0,0-.93-.8H288v32h1.88V110.79H304v-1.94Z"/><path d="M160,58.79V56.85h-9.4l8.77-3A1,1,0,0,0,160,52.8a1,1,0,0,0-.93-.8H144V84h1.88V63.64h6.59V61.7h-6.59V58.79Zm-6.62-4.85-7.5,2.52V53.94Z"/><path d="M196,58.79V56.85h-9.4l8.77-3A1,1,0,0,0,196,52.8a1,1,0,0,0-.93-.8H180V84h1.88V63.64H196V61.7H181.88V58.79Zm-7.32-4.85-6.8,2.5v-2.5Z"/><path d="M232,58.79V56.85h-9.4l8.77-3A1,1,0,0,0,232,52.8a1,1,0,0,0-.93-.8H216V84h1.88V68.48h6.59V66.55h-6.59V63.64H232V61.7H217.88V58.79Zm-6.62-4.85-7.5,2.52V53.94Z"/><path d="M340,110.79v-1.94h-9.4l8.77-3a1,1,0,0,0,.62-1.08,1,1,0,0,0-.93-.8H324v32h1.88V115.64h6.59V113.7h-6.59v-2.91Z"/><path d="M16,162.79v-1.94H6.6l8.78-3A1,1,0,0,0,16,156.8a1,1,0,0,0-.93-.8H0v32H1.88V167.64H16V165.7H1.88v-2.91Z"/><path d="M52,162.79v-1.94H42.6l8.78-3a1,1,0,0,0,.61-1.07,1,1,0,0,0-.93-.81H36v32h1.88V172.48h6.59v-1.93H37.88v-2.91H52V165.7H37.88v-2.91Z"/><path d="M268,58.79V56.85h-9.4l8.77-3A1,1,0,0,0,268,52.8a1,1,0,0,0-.93-.8H252V84h1.88V68.48H268V66.55H253.88V63.64H268V61.7H253.88V58.79Zm-6.62-4.85-7.5,2.52V53.94Z"/><path d="M304,58.79V56.85h-9.4l8.77-3A1,1,0,0,0,304,52.8a1,1,0,0,0-.93-.8H288V84h1.88V73.33h6.59V71.39h-6.59V68.48H304V66.55H289.88V63.64H304V61.7H289.88V58.79Zm-7.32-4.85-6.8,2.5v-2.5Z"/><path d="M340,58.79V56.85h-9.4l8.77-3A1,1,0,0,0,340,52.8a1,1,0,0,0-.93-.8H324V84h1.88V73.33H340V71.39H325.88V68.48H340V66.55H325.88V63.64H340V61.7H325.88V58.79Zm-7.32-4.85-6.8,2.5v-2.5Z"/><path d="M16,110.79v-1.94H6.6l8.77-3a1,1,0,0,0-.31-1.88H0v32H1.88v-5.82H8.47v-1.94H1.88v-2.91H16v-1.94H1.88v-2.91H16v-1.93H1.88v-2.91H16V113.7H1.88v-2.91Zm-7.32-4.85-6.8,2.5v-2.5Z"/><path d="M51.06,108.85H42.6l8.77-3A1,1,0,0,0,52,104.8a1,1,0,0,0-.93-.8H36v32h1.88V115.36l13.49-4.63a1,1,0,0,0,.62-1.08A1,1,0,0,0,51.06,108.85Zm-13.18-.39v-2.52h7.5Zm7.5,2.33-7.5,2.52v-2.52Z"/><path d="M87.06,108.85H78.6l8.77-3A1,1,0,0,0,88,104.8a1,1,0,0,0-.93-.8H72v32h1.88V115.64h6.59V113.7H78.6l8.77-3a1,1,0,0,0,.62-1.08A1,1,0,0,0,87.06,108.85Zm-13.18-.39v-2.52h7.5Zm7.5,2.33-7.5,2.52v-2.52Z"/><path d="M114.6,113.7l8.77-3a1,1,0,0,0,.62-1.08,1,1,0,0,0-.93-.8H114.6l8.77-3a1,1,0,0,0,.62-1.08,1,1,0,0,0-.93-.8H108v32h1.88V115.64H124V113.7Zm-4.72-5.24v-2.52h7.5Zm7.5,2.33-7.5,2.52v-2.52Z"/><path d="M160,115.64V113.7h-9.4l8.77-3a1,1,0,0,0,.62-1.08,1,1,0,0,0-.93-.8H150.6l8.77-3a1,1,0,0,0-.31-1.88H144v32h1.88V119.52h6.59v-1.94h-6.59v-1.94Zm-7.32-4.85-6.8,2.5v-2.5Zm-6.8-2.35v-2.5h6.8Z"/><path d="M196,115.64V113.7h-9.4l8.77-3a1,1,0,0,0,.62-1.08,1,1,0,0,0-.93-.8H186.6l8.77-3a1,1,0,0,0,.62-1.07,1,1,0,0,0-.93-.81H180v32h1.88V119.52H196v-1.94H181.88v-1.94Zm-14.12-7.18v-2.52h7.5Zm7.5,2.33-7.5,2.52v-2.52Z"/><path d="M231.06,104H216v32h1.88V110.51l13.49-4.63a1,1,0,0,0,.62-1.07A1,1,0,0,0,231.06,104Z"/></svg>