<svg id="图层_1" data-name="图层 1" xmlns="http://www.w3.org/2000/svg" viewBox="0 0 340 188"><defs><style>.cls-1{fill:#fff;}</style></defs><path class="cls-1" d="M8,13.5A2.5,2.5,0,1,0,10.5,16,2.5,2.5,0,0,0,8,13.5Zm0,4A1.5,1.5,0,1,1,9.5,16,1.5,1.5,0,0,1,8,17.5Z"/><rect class="cls-1" x="51" width="1" height="32"/><polygon class="cls-1" points="87 0 87 31 80 31 80 32 88 32 88 0 87 0"/><polygon class="cls-1" points="108 31 123 31 123 0 124 0 124 32 108 32 108 31"/><polygon class="cls-1" points="159 31 159 27 152 27 152 26 159 26 159 0 160 0 160 32 144 32 144 31 159 31"/><polygon class="cls-1" points="195 31 195 27 180 27 180 26 195 26 195 0 196 0 196 32 180 32 180 31 195 31"/><polygon class="cls-1" points="231 31 231 27 216 27 216 26 231 26 231 22 224 22 224 21 231 21 231 0 232 0 232 32 216 32 216 31 231 31"/><polygon class="cls-1" points="339 31 339 27 324 27 324 26 339 26 339 22 324 22 324 21 339 21 339 17 324 17 324 16 339 16 339 0 340 0 340 32 324 32 324 31 339 31"/><polygon class="cls-1" points="15 83 15 79 0 79 0 78 15 78 15 74 0 74 0 73 15 73 15 69 0 69 0 68 15 68 15 64 8 64 8 63 15 63 15 52 16 52 16 84 0 84 0 83 15 83"/><polygon class="cls-1" points="267 31 267 27 252 27 252 26 267 26 267 22 252 22 252 21 267 21 267 0 268 0 268 32 252 32 252 31 267 31"/><polygon class="cls-1" points="303 31 303 27 288 27 288 26 303 26 303 22 288 22 288 21 303 21 303 17 296 17 296 16 303 16 303 0 304 0 304 32 288 32 288 31 303 31"/><path class="cls-1" d="M36.5,84H52V52H51V78.15L36.33,83a.5.5,0,0,0-.32.56A.49.49,0,0,0,36.5,84ZM51,79.21V83H39.39Z"/><path class="cls-1" d="M72.5,84H88V52H87V78H80v1h4.61L72.33,83a.5.5,0,0,0-.32.56A.49.49,0,0,0,72.5,84ZM87,79.21V83H75.39Z"/><path class="cls-1" d="M252,135.59a.5.5,0,0,1,.32-.56l12.28-4H260v-1h7V104h1v32H252.5A.49.49,0,0,1,252,135.59Z"/><path class="cls-1" d="M120.61,79l-12.28,4a.5.5,0,0,0-.32.56.49.49,0,0,0,.49.41H124V52h-1V78H108v1ZM123,83H111.39L123,79.21Z"/><path class="cls-1" d="M288,130h15V104h1v32H288.5a.5.5,0,0,1-.17-1l12.28-4H288Z"/><path class="cls-1" d="M144,78v1h12.61l-12.28,4a.5.5,0,0,0-.32.56.49.49,0,0,0,.49.41H160V52h-1V73h-7v1h7v4Zm15,5H147.39L159,79.21Z"/><path class="cls-1" d="M180,78v1h12.61l-12.28,4a.5.5,0,0,0-.32.56.49.49,0,0,0,.49.41H196V52h-1V73H180v1h15v4Zm15,5H184.39L195,79.21Z"/><path class="cls-1" d="M216,78v1h12.61l-12.28,4a.5.5,0,0,0-.32.56.49.49,0,0,0,.49.41H232V52h-1V68h-7v1h7v4H216v1h15v4Zm15,5H219.39L231,79.21Z"/><path class="cls-1" d="M339,130v-4h-7v-1h7V104h1v32H324.5a.5.5,0,0,1-.17-1l12.28-4H324v-1Z"/><path class="cls-1" d="M15,182v-4H0v-1H15V156h1v32H.5a.5.5,0,0,1-.17-1l12.28-4H0v-1Z"/><path class="cls-1" d="M51,182v-4H36v-1H51v-4H44v-1h7V156h1v32H36.5a.5.5,0,0,1-.17-1l12.28-4H36v-1Z"/><path class="cls-1" d="M252,78v1h12.61l-12.28,4a.5.5,0,0,0-.32.56.49.49,0,0,0,.49.41H268V52h-1V68H252v1h15v4H252v1h15v4Zm15,5H255.39L267,79.21Z"/><path class="cls-1" d="M288,78v1h12.61l-12.28,4a.5.5,0,0,0-.32.56.49.49,0,0,0,.49.41H304V52h-1V63h-7v1h7v4H288v1h15v4H288v1h15v4Zm15,5H292.39L303,79.21Z"/><path class="cls-1" d="M324,78v1h12.61l-12.28,4a.5.5,0,0,0-.32.56.49.49,0,0,0,.49.41H340V52h-1V63H324v1h15v4H324v1h15v4H324v1h15v4Zm15,5H328.39L339,79.21Z"/><path class="cls-1" d="M0,130v1H12.61L.33,135a.5.5,0,0,0-.32.56A.49.49,0,0,0,.5,136H16V104H15v6H8v1h7v4H0v1H15v4H0v1H15v4H0v1H15v4Zm15,5H4.39L15,131.21Z"/><path class="cls-1" d="M36.5,131H48.61l-12.28,4a.5.5,0,0,0-.32.56.49.49,0,0,0,.49.41H52V104H51v21.15L36.33,130a.5.5,0,0,0-.32.56A.49.49,0,0,0,36.5,131ZM51,135H39.39L51,131.21Zm0-8.79V130H39.39Z"/><path class="cls-1" d="M72.5,131H84.61l-12.28,4a.5.5,0,0,0-.32.56.49.49,0,0,0,.49.41H88V104H87v21H80v1h4.61l-12.28,4a.5.5,0,0,0-.32.56A.49.49,0,0,0,72.5,131ZM87,135H75.39L87,131.21Zm0-8.79V130H75.39Z"/><path class="cls-1" d="M120.61,126l-12.28,4a.5.5,0,0,0-.32.56.49.49,0,0,0,.49.41h12.11l-12.28,4a.5.5,0,0,0-.32.56.49.49,0,0,0,.49.41H124V104h-1v21H108v1Zm2.39,9H111.39L123,131.21Zm0-5H111.39L123,126.21Z"/><path class="cls-1" d="M144,125v1h12.61l-12.28,4a.5.5,0,0,0-.32.56.49.49,0,0,0,.49.41h12.11l-12.28,4a.5.5,0,0,0-.32.56.49.49,0,0,0,.49.41H160V104h-1v17h-7v1h7v3Zm15,10H148.39L159,131.21Zm0-5H148.39L159,126.21Z"/><path class="cls-1" d="M180,125v1h12.61l-12.28,4a.5.5,0,0,0-.32.56.49.49,0,0,0,.49.41h12.11l-12.28,4a.5.5,0,0,0-.32.56.49.49,0,0,0,.49.41H196V104h-1v17H180v1h15v3Zm15,10H183.39L195,131.21Zm0-5H183.39L195,126.21Z"/><path class="cls-1" d="M216,135.59a.5.5,0,0,1,.32-.56L231,130.15V104h1v32H216.5A.49.49,0,0,1,216,135.59Z"/></svg>