<svg id="图层_1" data-name="图层 1" xmlns="http://www.w3.org/2000/svg" viewBox="0 0 340 188"><defs><style>.cls-1{fill:#fff;}</style></defs><path class="cls-1" d="M8,13.5A2.5,2.5,0,1,0,10.5,16,2.5,2.5,0,0,0,8,13.5Zm0,4A1.5,1.5,0,1,1,9.5,16,1.5,1.5,0,0,1,8,17.5Z"/><path class="cls-1" d="M36,32h1V0H36Z"/><polygon class="cls-1" points="72 0 72 32 73 32 73 1 80 1 80 0 72 0"/><path class="cls-1" d="M124,1H109V32h-1V0h16Z"/><path class="cls-1" d="M145,1V5h7V6h-7V32h-1V0h16V1Z"/><path class="cls-1" d="M181,1V5h15V6H181V32h-1V0h16V1Z"/><path class="cls-1" d="M217,1V5h15V6H217v4h7v1h-7V32h-1V0h16V1Z"/><path class="cls-1" d="M325,1V5h15V6H325v4h15v1H325v4h15v1H325V32h-1V0h16V1Z"/><path class="cls-1" d="M1,53v4H16v1H1v4H16v1H1v4H16v1H1v4H8v1H1V84H0V52H16v1Z"/><path class="cls-1" d="M253,1V5h15V6H253v4h15v1H253V32h-1V0h16V1Z"/><path class="cls-1" d="M289,1V5h15V6H289v4h15v1H289v4h7v1h-7V32h-1V0h16V1Z"/><path class="cls-1" d="M51.5,52H36V84h1V57.85L51.67,53a.5.5,0,0,0,.32-.56A.49.49,0,0,0,51.5,52ZM37,56.79V53H48.61Z"/><path class="cls-1" d="M87.5,52H72V84h1V58h7V57H75.39l12.28-4a.5.5,0,0,0,.32-.56A.49.49,0,0,0,87.5,52ZM73,56.79V53H84.61Z"/><path class="cls-1" d="M268,104.41a.5.5,0,0,1-.32.56l-12.28,4H260v1h-7v26h-1V104h15.5A.49.49,0,0,1,268,104.41Z"/><path class="cls-1" d="M124,57H111.39l12.28-4a.5.5,0,0,0,.32-.56.49.49,0,0,0-.49-.41H108V84h1V58h15Zm-15-4h11.61L109,56.79Z"/><path class="cls-1" d="M304,110H289v26h-1V104h15.5a.5.5,0,0,1,.17,1l-12.28,4H304Z"/><path class="cls-1" d="M160,58V57H147.39l12.28-4a.5.5,0,0,0,.32-.56.49.49,0,0,0-.49-.41H144V84h1V63h7V62h-7V58Zm-15-5h11.61L145,56.79Z"/><path class="cls-1" d="M196,58V57H183.39l12.28-4a.5.5,0,0,0,.32-.56.49.49,0,0,0-.49-.41H180V84h1V63h15V62H181V58Zm-15-5h10.61L181,56.79Z"/><path class="cls-1" d="M232,58V57H219.39l12.28-4a.5.5,0,0,0,.32-.56.49.49,0,0,0-.49-.41H216V84h1V68h7V67h-7V63h15V62H217V58Zm-15-5h11.61L217,56.79Z"/><path class="cls-1" d="M325,110v4h7v1h-7v21h-1V104h15.5a.5.5,0,0,1,.17,1l-12.28,4H340v1Z"/><path class="cls-1" d="M1,162v4H16v1H1v21H0V156H15.5a.5.5,0,0,1,.17,1L3.39,161H16v1Z"/><path class="cls-1" d="M37,162v4H52v1H37v4h7v1H37v16H36V156H51.5a.5.5,0,0,1,.17,1l-12.28,4H52v1Z"/><path class="cls-1" d="M268,58V57H255.39l12.28-4a.5.5,0,0,0,.32-.56.49.49,0,0,0-.49-.41H252V84h1V68h15V67H253V63h15V62H253V58Zm-15-5h11.61L253,56.79Z"/><path class="cls-1" d="M304,58V57H291.39l12.28-4a.5.5,0,0,0,.32-.56.49.49,0,0,0-.49-.41H288V84h1V73h7V72h-7V68h15V67H289V63h15V62H289V58Zm-15-5h10.61L289,56.79Z"/><path class="cls-1" d="M340,58V57H327.39l12.28-4a.5.5,0,0,0,.32-.56.49.49,0,0,0-.49-.41H324V84h1V73h15V72H325V68h15V67H325V63h15V62H325V58Zm-15-5h10.61L325,56.79Z"/><path class="cls-1" d="M16,110v-1H3.39l12.28-4a.5.5,0,0,0,.32-.56.49.49,0,0,0-.49-.41H0v32H1v-6H8v-1H1v-4H16v-1H1v-4H16v-1H1v-4H16v-1H1v-4ZM1,105H11.61L1,108.79Z"/><path class="cls-1" d="M51.5,109H39.39l12.28-4a.5.5,0,0,0,.32-.56.49.49,0,0,0-.49-.41H36v32h1V114.85L51.67,110a.5.5,0,0,0,.32-.56A.49.49,0,0,0,51.5,109ZM37,105H48.61L37,108.79Zm0,8.79V110H48.61Z"/><path class="cls-1" d="M87.5,109H75.39l12.28-4a.5.5,0,0,0,.32-.56.49.49,0,0,0-.49-.41H72v32h1V115h7v-1H75.39l12.28-4a.5.5,0,0,0,.32-.56A.49.49,0,0,0,87.5,109ZM73,105H84.61L73,108.79Zm0,8.79V110H84.61Z"/><path class="cls-1" d="M124,114H111.39l12.28-4a.5.5,0,0,0,.32-.56.49.49,0,0,0-.49-.41H111.39l12.28-4a.5.5,0,0,0,.32-.56.49.49,0,0,0-.49-.41H108v32h1V115h15Zm-15-.21V110h11.61Zm0-8.79h11.61L109,108.79Z"/><path class="cls-1" d="M160,115v-1H147.39l12.28-4a.5.5,0,0,0,.32-.56.49.49,0,0,0-.49-.41H147.39l12.28-4a.5.5,0,0,0,.32-.56.49.49,0,0,0-.49-.41H144v32h1V119h7v-1h-7v-3Zm-15-1.21V110h10.61Zm0-8.79h10.61L145,108.79Z"/><path class="cls-1" d="M196,115v-1H183.39l12.28-4a.5.5,0,0,0,.32-.56.49.49,0,0,0-.49-.41H183.39l12.28-4a.5.5,0,0,0,.32-.56.49.49,0,0,0-.49-.41H180v32h1V119h15v-1H181v-3Zm-15-1.21V110h11.61Zm0-8.79h11.61L181,108.79Z"/><path class="cls-1" d="M232,104.41a.5.5,0,0,1-.32.56L217,109.85V136h-1V104h15.5A.49.49,0,0,1,232,104.41Z"/></svg>