<svg t="1706855358951" class="icon" viewBox="0 0 1024 1024" version="1.1" xmlns="http://www.w3.org/2000/svg" p-id="7002" width="200" height="200"><path d="M199.798545 665.537905 10.1271 665.537905 10.1271 856.343991c0 3.38699 2.257993 5.644983 5.644983 5.644983l184.032106 0L199.80419 665.537905z" p-id="7003"></path><path d="M252.296891 665.537905 252.296891 861.988975l755.863286 0c3.38699 0 5.644983-2.257993 5.644983-5.644983l0-190.806086L252.296891 665.537905z" p-id="7004"></path><path d="M252.296891 417.158633l761.508269 0 0 195.880926-761.508269 0 0-195.880926Z" p-id="7005"></path><path d="M10.1271 417.158633l189.677089 0 0 195.880926-189.677089 0 0-195.880926Z" p-id="7006"></path><path d="M199.798545 172.171996 15.772084 172.171996c-3.38699 0-5.644983 2.252348-5.644983 5.644983l0 186.848953 189.677089 0L199.80419 172.171996z" p-id="7007"></path><path d="M1008.724675 172.171996l-756.427784 0 0 192.493936 761.508269 0L1013.80516 177.816979C1014.369658 174.424344 1011.547166 172.171996 1008.724675 172.171996z" p-id="7008"></path></svg>