<?xml version="1.0" encoding="utf-8"?>
<!-- Generator: Adobe Illustrator 24.0.1, SVG Export Plug-In . SVG Version: 6.00 Build 0)  -->
<svg version="1.1" id="图层_1" xmlns="http://www.w3.org/2000/svg" xmlns:xlink="http://www.w3.org/1999/xlink" x="0px" y="0px"
	 viewBox="0 0 32 32" style="enable-background:new 0 0 32 32;" xml:space="preserve">
<path d="M26.7,17.3H5.3C4.6,17.3,4,16.7,4,16s0.6-1.3,1.3-1.3h21.3c0.7,0,1.3,0.6,1.3,1.3C28,16.7,27.4,17.3,26.7,17.3z M26.7,10
	H5.3C4.6,10,4,9.4,4,8.7s0.6-1.3,1.3-1.3h21.3c0.7,0,1.3,0.6,1.3,1.3S27.4,10,26.7,10z M16.7,24.7H5.3c-0.7,0-1.3-0.6-1.3-1.3
	S4.6,22,5.3,22h11.3c0.7,0,1.3,0.6,1.3,1.3S17.4,24.7,16.7,24.7z"/>
</svg>
