<svg t="1726042385462" class="icon" viewBox="0 0 1177 1024" version="1.1" xmlns="http://www.w3.org/2000/svg"><path d="M460.3904 565.8112c-1.5872 0-12.5952-0.3072-33.1264-1.024-20.5312-0.768-41.728-1.1264-63.744-1.1264-22.1184 0-47.3088-1.024-75.6736-3.2768-28.3648-2.2528-51.1488-4.8128-68.5056-7.7824-3.1744-1.536-5.5296-1.536-7.0144 0l-5.888 5.5296c-2.4064 2.2528-3.584 4.096-3.584 5.5296L124.928 677.0688l-18.944 6.6048-42.5472 2.2528 37.888-151.1936L25.6 508.1088l75.6736-26.7264-37.888-151.296 42.496 2.2528c9.472 1.536 15.8208 2.9696 18.944 4.5056l78.08 115.6096c0 1.4848 1.4848 3.7376 4.7616 6.6048 3.072 4.5056 7.0144 5.9904 11.6736 4.5056 17.408-3.0208 40.2944-5.5808 68.608-7.8336a1698.6624 1698.6624 0 0 1 139.4176-5.5296h33.1264c4.7616 0 7.936-1.536 9.4208-4.5056a19.6096 19.6096 0 0 0 2.3552-8.8576v-4.4544l-30.72-137.8304L325.7344 9.8816c18.944 0 32.6656 0.7168 41.3184 2.2016 8.6016 1.4848 14.9504 3.2768 18.944 5.5296 3.84 2.2528 8.2432 6.2976 13.0048 12.1856l309.5552 407.04c99.2768 7.3728 188.16 11.1104 267.008 11.1104 33.1264 0 72.0384 6.2976 116.9408 18.944 44.9024 12.544 67.3792 26.3168 67.3792 41.1648 0 14.848-22.1184 28.5184-66.0992 41.1136-44.1344 12.5952-83.6096 18.8928-118.2208 18.8928-37.7856 0-78.848 1.024-122.88 3.328-44.0832 2.2016-79.5648 4.096-106.3424 5.632l-37.7856 2.2528-309.5552 407.04c-11.008 13.312-35.4816 19.968-73.216 19.968l115.7632-284.672 30.72-137.984c3.072-11.8272-0.8704-17.8176-11.8784-17.8176z"></path></svg>