<?xml version="1.0" encoding="UTF-8"?>
<svg xmlns="http://www.w3.org/2000/svg" version="1.1" viewBox="0 0 1024 1024">
  <path d="M511.24,60.72c-45.7,6.34-66.03,85.66-72.03,117.68-3.84,20.49-5.64,85.73-4.66,191.33-12.16,6.96-43.28,24.82-82.36,47.34-10.47-11.66-40.45-44.62-54.63-55.89-25.98-20.64-38.27,7.1-38.23,26.35.03,19.53,0,74.45,0,83.19-71,41.18-141.4,82.38-165.94,97.99-55.61,35.39-29.32,104.16,0,101.11,26.37-2.74,292.38-71.71,345.57-85.54.09,2.95.15,5.73.25,8.7,2.39,80.85,11.65,149.07,22.79,204.36-18.16,16.96-78.32,72.93-115.82,106.08-45.6,40.31-10.21,62.11,5.05,59.66,43.8-7.03,137.78-34.86,145.49-37.16,3.8,15.29,9.18,24.92,15.18,25.01.02.05.06.1.09.15.03-.05.08-.11.11-.16,5.99-.11,11.36-9.74,15.16-25.01,7.7,2.29,101.7,30.13,145.5,37.16,15.26,2.45,50.65-19.35,5.06-59.66-37.5-33.15-97.66-89.13-115.82-106.08,11.14-55.3,20.39-123.51,22.79-204.36.09-2.97.15-5.75.24-8.7,53.19,13.84,319.2,82.81,345.57,85.54,29.32,3.04,55.61-65.73,0-101.11-24.53-15.62-94.93-56.81-165.94-97.99,0-8.74-.03-63.66,0-83.19.04-19.25-12.25-46.99-38.23-26.35-14.18,11.27-44.15,44.22-54.64,55.89-39.08-22.52-70.2-40.38-82.35-47.34.98-105.6-.82-170.84-4.66-191.33-6-32.02-31.01-112.96-73.55-117.68"/>
</svg>