<svg t="1713540912318" class="icon" viewBox="0 0 1024 1024" version="1.1" xmlns="http://www.w3.org/2000/svg"><path d="M500.471523 10.511258c-4.74702 5.764238-11.86755 20.344371-15.597351 32.890067-13.223841 44.418543-16.953642 84.768212-16.953642 191.237086v100.704635l-70.866225 57.642384C357.721854 424.858278 325.170861 450.966887 324.153642 450.966887c-1.017219 0-2.37351-18.649007-2.712582-41.70596l-1.017219-41.366887h-37.298013l1.017218 57.642384 0.678146 57.642384-34.246358 28.821192c-18.649007 15.936424-37.976159 31.533775-42.384106 35.263576l-8.476821 6.103311 1.017219-41.70596 1.017218-42.045033h-40.688741l1.017218 56.286093 1.356292 56.286092L108.503311 628.980132c-30.177483 26.108609-56.964238 51.2-59.676821 56.286093-3.390728 7.12053-4.74702 21.022517-4.068874 52.895364 0.339073 23.735099 1.017219 34.58543 1.695364 24.074173 0.678146-10.511258 3.051656-20.683444 5.425166-22.378808 2.37351-1.695364 64.423841-33.907285 138.002649-71.205298l133.933775-68.153643 56.964238-12.206622c31.533775-6.442384 63.06755-11.86755 69.849007-11.86755h12.884768l2.034437 66.797351c1.356291 36.619868 2.37351 82.733775 2.37351 102.4 0.339073 19.666225 3.051656 54.929801 6.781457 78.325828 3.390728 23.396026 5.764238 42.384106 5.764238 42.723179-5.086093 3.390728-110.537748 98.670199-113.250331 102.4-4.74702 5.764238-6.103311 51.539073-1.695364 51.539073 1.356291 0 32.211921-9.833113 68.492715-22.039736s67.136424-22.039735 68.153642-22.039735c1.356291 0 3.390728 4.407947 4.74702 10.172186 1.356291 5.425166 3.390728 10.172185 5.086093 10.172185s3.729801-4.74702 5.086093-10.172185c1.356291-5.764238 3.390728-10.172185 4.74702-10.172186 1.017219 0 31.872848 9.833113 68.153642 22.039735 36.280795 12.206623 67.136424 22.039735 68.492715 22.039736 1.356291 0 2.712583-10.511258 2.712583-23.396027 0-28.143046 4.407947-22.378808-67.136424-86.463576-42.384106-38.654305-51.2-47.809272-49.843708-53.912583 8.137748-33.568212 12.206623-87.480795 14.241059-177.674172l2.034437-102.739073 15.597351 0.339073c8.476821 0 40.688742 5.764238 71.883444 12.545695l55.94702 12.545696 136.307285 69.170861 135.968211 69.509933 1.356292 20.344371c0.678146 11.528477 1.356291 0 1.695364-25.091391 0.678146-36.280795-0.339073-47.470199-4.407947-53.234437-3.051656-4.068874-29.499338-28.143046-59.337748-53.912582-44.07947-37.637086-53.912583-47.470199-52.556292-53.57351 0.678146-3.729801 2.034437-29.160265 2.37351-56.286093l1.017219-49.165563h-44.07947l1.017218 42.384106c1.017219 40.349669 0.678146 42.045033-5.086093 36.95894-66.119205-55.94702-79.003974-68.153642-77.647682-75.274172 1.017219-4.068874 2.712583-28.143046 3.729802-53.57351 2.37351-53.234437 1.695364-54.929801-24.413245-53.234437l-16.275497 1.017219-1.017219 41.70596c-0.339073 23.056954-2.034437 41.366887-3.390728 40.688742-1.695364-0.678146-34.246358-26.786755-72.900662-58.32053L556.07947 334.664901V232.603974c0-55.94702-1.695364-112.911258-3.390728-125.796027C543.872848 42.723179 526.919205 0 510.304636 0c-0.678146 0-5.086093 4.74702-9.833113 10.511258z" p-id="15851"></path></svg>