<svg t="1709188005205" class="icon" viewBox="0 0 1024 1024" version="1.1" xmlns="http://www.w3.org/2000/svg" p-id="11503" width="200" height="200"><path d="M512 1024A512 512 0 1 1 512 0a512 512 0 0 1 0 1024z m231.131429-501.76h-460.8v318.902857h50.468571v-32.182857h359.862857v32.182857h50.468572V522.24z m-410.331429 241.371429V686.08h154.331429v77.531429H332.8z m204.068571 0V686.08h155.794286v77.531429H536.868571zM332.8 643.657143V566.125714h154.331429V643.657143H332.8z m204.068571-77.531429h155.794286V643.657143H536.868571V566.125714zM414.72 161.645714a619.739429 619.739429 0 0 1-203.337143 188.708572l33.645714 40.96c36.571429-23.405714 70.948571-49.005714 103.131429-78.262857 33.645714 34.377143 72.411429 65.097143 116.297143 91.428571-81.92 36.571429-177.005714 62.902857-286.72 78.262857l22.674286 46.08c120.685714-19.748571 226.011429-51.931429 315.245714-96.548571 84.845714 42.422857 187.245714 72.411429 307.2 90.697143l22.674286-46.811429c-108.251429-14.628571-201.142857-38.034286-280.137143-71.68 64.365714-39.497143 119.222857-86.308571 164.571428-141.897143v-40.228571H432.274286c11.702857-15.36 23.405714-31.451429 34.377143-49.005715l-51.931429-11.702857z m-35.108571 121.417143l14.628571-14.628571h270.628571c-42.422857 42.422857-92.891429 79.725714-151.405714 111.908571-52.662857-27.794286-97.28-59.977143-133.851428-97.28z" p-id="11504"></path></svg>