<svg t="1727405105220" class="icon" viewBox="0 0 1024 1024" version="1.1" xmlns="http://www.w3.org/2000/svg" p-id="7701" width="200" height="200"><path d="M861.867 492.8c2.133 23.467 2.133 44.8 0 68.267l55.466 32c8.534 4.266 14.934 12.8 19.2 21.333 4.267 8.533 4.267 19.2 2.134 25.6-21.334 74.667-59.734 140.8-115.2 196.267-6.4 6.4-12.8 10.666-23.467 12.8-8.533 2.133-19.2 0-27.733-4.267L716.8 810.667c-19.2 12.8-38.4 23.466-57.6 34.133v64c0 10.667-2.133 19.2-8.533 27.733-6.4 8.534-12.8 12.8-23.467 14.934-74.667 19.2-151.467 19.2-226.133 0-8.534-2.134-17.067-6.4-23.467-14.934-6.4-8.533-8.533-17.066-8.533-27.733v-64c-19.2-8.533-40.534-21.333-57.6-34.133l-55.467 32c-8.533 4.266-19.2 6.4-27.733 4.266-8.534-2.133-17.067-4.266-23.467-12.8-55.467-55.466-93.867-121.6-115.2-196.266-2.133-8.534-2.133-17.067 2.133-25.6 4.267-8.534 10.667-17.067 19.2-21.334l55.467-32c-2.133-23.466-2.133-44.8 0-68.266l-55.467-32c-8.533-4.267-14.933-12.8-19.2-21.334-4.266-8.533-4.266-19.2-2.133-25.6 21.333-74.666 59.733-140.8 115.2-196.266 6.4-6.4 12.8-10.667 23.467-12.8 8.533-2.134 19.2 0 27.733 4.266l55.467 32c19.2-12.8 38.4-23.466 57.6-34.133v-64c0-10.667 2.133-19.2 8.533-27.733 6.4-8.534 12.8-12.8 23.467-14.934 74.666-19.2 151.466-19.2 226.133 0 8.533 2.134 17.067 6.4 23.467 14.934 6.4 8.533 8.533 17.066 8.533 27.733v64c19.2 8.533 40.533 21.333 57.6 34.133l55.467-32c8.533-4.266 19.2-6.4 27.733-4.266 8.533 2.133 17.067 4.266 23.467 12.8 55.466 55.466 93.866 121.6 115.2 196.266 2.133 8.534 2.133 17.067-2.134 25.6-4.266 8.534-10.666 17.067-19.2 21.334L861.867 492.8zM768 603.733c6.4-36.266 10.667-61.866 10.667-78.933 0-14.933-4.267-40.533-10.667-78.933l78.933-44.8c-14.933-36.267-36.266-70.4-61.866-102.4l-78.934 44.8c-27.733-23.467-49.066-38.4-61.866-46.934s-38.4-17.066-72.534-32v-87.466c-40.533-6.4-81.066-6.4-119.466 0v89.6c-34.134 12.8-57.6 23.466-72.534 32S345.6 322.133 317.867 345.6l-78.934-46.933c-25.6 32-46.933 66.133-59.733 104.533L256 448c-6.4 36.267-10.667 61.867-10.667 78.933 0 14.934 4.267 40.534 10.667 78.934l-78.933 44.8C192 689.067 211.2 723.2 236.8 755.2l78.933-44.8c27.734 23.467 49.067 38.4 61.867 46.933s38.4 17.067 72.533 32v85.334c40.534 6.4 81.067 6.4 119.467 0v-89.6c34.133-12.8 57.6-23.467 72.533-32S676.267 729.6 704 706.133l78.933 44.8c25.6-32 46.934-66.133 59.734-104.533L768 603.733zM512 356.267c46.933 0 87.467 17.066 119.467 49.066 34.133 34.134 49.066 72.534 49.066 119.467s-17.066 87.467-49.066 119.467C597.333 678.4 558.933 693.333 512 693.333s-87.467-17.066-119.467-49.066c-34.133-34.134-49.066-72.534-49.066-119.467s17.066-87.467 49.066-119.467c32-34.133 72.534-49.066 119.467-49.066z m0 253.866c23.467 0 42.667-8.533 59.733-25.6 17.067-17.066 25.6-36.266 25.6-59.733s-8.533-42.667-25.6-59.733C554.667 448 535.467 441.6 512 441.6s-42.667 8.533-59.733 25.6c-17.067 17.067-25.6 36.267-25.6 59.733s8.533 42.667 25.6 59.734c17.066 14.933 36.266 23.466 59.733 23.466z"></path></svg>