<svg t="1709186985336" class="icon" viewBox="0 0 1104 1024" version="1.1" xmlns="http://www.w3.org/2000/svg" p-id="21330" width="200" height="200"><path d="M643.90636 322.144411a31.55932 31.55932 0 0 0-31.571657-31.571657H266.37892a31.571657 31.571657 0 0 0 0 63.143315h345.955783a31.55932 31.55932 0 0 0 31.571657-31.571658zM266.37892 512.006169a31.571657 31.571657 0 1 0 0 63.130977h275.409969a31.571657 31.571657 0 1 0 0-63.130977z" p-id="21331"></path><path d="M832.855143 804.21981a31.546982 31.546982 0 0 0-31.571658 31.571657c0 30.362583-25.834721 55.062254-57.554428 55.062254H164.323136c-31.75672 0-57.591441-24.674996-57.59144-55.062254V188.208533c0-30.362583 25.834721-55.062254 57.59144-55.062254h579.405921c31.719707 0 57.554428 24.674996 57.554428 55.062254v75.172375a31.571657 31.571657 0 0 0 63.143315 0v-75.172375c0-65.166665-54.136941-118.205569-120.697743-118.205569H164.323136c-66.622489 0-120.734756 53.051242-120.734755 118.205569v647.582934c0 65.166665 54.161616 118.205569 120.734755 118.205569h579.405921c66.560802 0 120.697743-53.051242 120.697743-118.205569a31.546982 31.546982 0 0 0-31.571657-31.571657z" p-id="21332"></path><path d="M1022.248075 409.308835a131.110592 131.110592 0 0 0-205.012205 160.387475l-113.393944 113.393944-22.663984-22.663984a31.583995 31.583995 0 0 0-44.649406 0 31.583995 31.583995 0 0 0 0 44.649406l22.663984 22.663984-28.906758 28.89442-68.769214-68.769214a31.583995 31.583995 0 0 0-44.649405 0 31.583995 31.583995 0 0 0 0 44.649405l91.100086 91.100086a31.583995 31.583995 0 0 0 44.649405 0l209.256304-209.293317a131.110592 131.110592 0 0 0 160.387475-205.012205z m-44.661743 140.770853a67.967277 67.967277 0 1 1 0-96.121448 68.053639 68.053639 0 0 1 0 96.121448z" p-id="21333"></path></svg>