<svg t="1659688500149" class="icon" viewBox="0 0 1024 1024" version="1.1" xmlns="http://www.w3.org/2000/svg" p-id="14514" preserveAspectRatio="none"><path d="M512 938.666667c235.648 0 426.666667-191.018667 426.666667-426.666667S747.648 85.333333 512 85.333333 85.333333 276.352 85.333333 512s191.018667 426.666667 426.666667 426.666667z m-200.832-225.834667a42.666667 42.666667 0 0 1 0-60.330667L451.669333 512 311.168 371.498667a42.666667 42.666667 0 0 1 60.330667-60.330667L512 451.669333l140.501333-140.501333a42.666667 42.666667 0 1 1 60.330667 60.330667L572.330667 512l140.501333 140.501333a42.666667 42.666667 0 0 1-60.330667 60.330667L512 572.330667l-140.501333 140.501333a42.666667 42.666667 0 0 1-60.330667 0z" p-id="14515"></path></svg>