<svg t="1659688627602" class="icon" viewBox="0 0 1024 1024" version="1.1" xmlns="http://www.w3.org/2000/svg" p-id="22489" perserveAspectRatio="none"><path d="M924.8 337.6c-22.6-53.4-54.9-101.3-96-142.4-41.1-41.1-89-73.4-142.4-96C631.1 75.8 572.5 64 512 64S392.9 75.8 337.6 99.2c-53.4 22.6-101.3 54.9-142.4 96-41.1 41.1-73.4 89-96 142.4C75.8 392.9 64 451.5 64 512s11.8 119.1 35.2 174.4c22.6 53.4 54.9 101.3 96 142.4 41.1 41.1 89 73.4 142.4 96C392.9 948.2 451.5 960 512 960s119.1-11.8 174.4-35.2c53.4-22.6 101.3-54.9 142.4-96 41.1-41.1 73.4-89 96-142.4C948.2 631.1 960 572.5 960 512s-11.8-119.1-35.2-174.4zM736 544H544v192c0 17.7-14.3 32-32 32s-32-14.3-32-32V544H288c-17.7 0-32-14.3-32-32s14.3-32 32-32h192V288c0-17.7 14.3-32 32-32s32 14.3 32 32v192h192c17.7 0 32 14.3 32 32s-14.3 32-32 32z" p-id="22490"></path></svg>