<svg viewBox="0 0 1024 1024" version="1.1" xmlns="http://www.w3.org/2000/svg"><path d="M595.2 802.133333c-10.666667 64-83.2 113.066667-83.2 113.066667s-68.266667-53.333333-74.666667-117.333333c-6.4-2.133333-10.666667-2.133333-17.066666-4.266667 0 8.533333-2.133333 17.066667-4.266667 23.466667-4.266667 87.466667 93.866667 160 93.866667 160s102.4-68.266667 106.666666-155.733334c0-8.533333-2.133333-17.066667-2.133333-25.6-8.533333 6.4-12.8 6.4-19.2 6.4z m53.333333-206.933333c12.8-83.2 29.866667-183.466667 32-243.2 2.133333-38.4-6.4-74.666667-17.066666-108.8-38.4-100.266667-119.466667-168.533333-119.466667-168.533333s-85.333333 64-130.133333 164.266666c-14.933333 29.866667-25.6 68.266667-27.733334 104.533334-2.133333 61.866667 4.266667 164.266667 10.666667 247.466666l-102.4 81.066667 19.2 93.866667 100.266667-44.8c2.133333 2.133333 6.4 4.266667 14.933333 8.533333l12.8 32s4.266667 10.666667 74.666667 14.933333c72.533333 2.133333 78.933333-10.666667 78.933333-10.666666l17.066667-34.133334c6.4-2.133333 8.533333-4.266667 10.666666-6.4l98.133334 51.2L746.666667 682.666667l-98.133334-87.466667zM537.6 426.666667c-42.666667 0-74.666667-34.133333-74.666667-74.666667s34.133333-74.666667 74.666667-74.666667 74.666667 34.133333 74.666667 74.666667-32 74.666667-74.666667 74.666667z"></path></svg>