<?xml version="1.0" standalone="no"?><!DOCTYPE svg PUBLIC "-//W3C//DTD SVG 1.1//EN" "http://www.w3.org/Graphics/SVG/1.1/DTD/svg11.dtd"><svg t="1681106547345" viewBox="0 0 1408 1024" version="1.1" xmlns="http://www.w3.org/2000/svg" p-id="13522" xmlns:xlink="http://www.w3.org/1999/xlink" width="44" height="32"><path d="M703.872 357.76c-40.832 0-79.232 16-108.16 44.864a151.936 151.936 0 0 0-44.864 108.16c0 40.832 15.872 79.232 44.8 108.16 28.992 28.928 67.392 44.8 108.16 44.8 40.832 0 79.232-15.872 108.16-44.8 28.992-28.928 44.864-67.328 44.864-108.16 0-40.768-15.872-79.168-44.8-108.16a151.68 151.68 0 0 0-108.16-44.8zM1381.12 511.616c-0.448-8.384-13.376-49.92-31.36-93.184-18.432-44.544-49.664-108.992-92.8-162.88A616.448 616.448 0 0 0 1049.6 87.68C950.144 37.76 833.728 12.48 703.872 12.48c-129.792 0-246.144 25.344-345.6 75.328a620.48 620.48 0 0 0-207.36 167.68C107.84 309.504 76.736 374.016 58.24 418.56 40.32 461.76 27.52 503.296 27.072 511.68v0.64c0.448 8.32 13.312 49.92 31.36 93.248 18.56 44.608 49.6 109.056 92.672 162.752A616.448 616.448 0 0 0 358.4 936.192c100.032 50.112 216.32 75.456 345.6 75.456 129.472 0 245.76-25.344 345.6-75.456a620.032 620.032 0 0 0 207.36-167.68c43.136-53.888 74.368-118.4 92.8-162.944 17.984-43.2 30.912-84.736 31.36-93.12v-0.32-0.576z m-677.248 259.2a260.288 260.288 0 0 1-259.968-259.968 260.352 260.352 0 0 1 259.968-259.904 260.352 260.352 0 0 1 259.904 259.904 260.288 260.288 0 0 1-259.904 259.968z" fill="#000000" p-id="13523"></path></svg>