<?xml version="1.0" encoding="UTF-8"?>
<svg xmlns="http://www.w3.org/2000/svg" version="1.1" viewBox="0 0 1024 1024">
  <path d="M405.19,444.36c32-10.9,32.7-11.9,32.1-42.2-1.5-76.1-4-152.3-.2-228.4,2.1-42.5,9.2-83.9,32.3-120.9,25-40,61.7-39.6,86.3,1,24,39.7,31.2,84.1,32.2,129.2,1.7,72.7,2.1,145.5-1.1,218.3-.8,17.2-.6,32.1,19.3,39.7,12.1,4.6,14.3,1.2,13.7-9.7-.4-6.8-.3-13.6.2-20.4,1.7-22.1,12.1-31,34.9-30.3,21.7.7,30.5,9.2,31.3,31.6.6,16.3,1.8,32.8-.3,48.9-1.9,15,3.7,21.8,16.3,28.2,75.9,38.3,151.2,77.6,227,116,22.7,11.5,38.1,27.4,42.7,53.3,6,34.4-11.2,49.5-44.6,38.1-78.5-26.7-157.2-53.1-235.5-80.4-29.8-10.4-60.7-14.7-91.6-19.7-13.9-2.3-17.7,2.5-17.9,16-1,73.4-2.7,146.9-9.7,220-1.1,11,2.5,17.9,12,23.3,23.1,13,45.9,26.5,68.6,40.2,18.4,11.1,22.9,25.4,15,44.9-5.2,13-15.2,13.7-27,11-23.9-5.5-48.1-9.6-71.6-16.3-16.4-4.7-23.7,0-27.2,16-2.3,10.6-6.7,20.7-10.5,30.9-3.5,9.1-8.1,17.9-19.5,18.2-11.6.3-16.5-8.3-20-17.5-4.6-12.1-9.2-24.2-12.4-36.7-3.1-11.8-8.9-14.9-20.7-11.9-24.4,6.2-49.1,11.2-73.6,16.7-11.7,2.6-24.7,5.4-29.1-9.5-4.4-14.7-9-31.3,8.6-42,23.8-14.5,47.6-29.1,72-42.6,11.9-6.6,15.8-15,14.5-28.2-6.8-71.8-9.6-143.9-8.8-216,.2-15.2-5.4-18.6-19.5-16.6-34.4,5-68.2,11.4-101.2,23-75,26.5-150.4,51.8-225.8,77.5-33,11.2-50.9-4.7-44-38.7,4.6-22.6,16-39.3,37.4-50.1,77.6-39.4,154.5-80,232.1-119.5,12.6-6.4,18-13.1,16.4-28.1-1.9-17.4-.1-35.3.7-52.9.9-19.7,13.1-26.8,31.3-27.1,17.9-.3,31,5.6,33.1,25.2,1.4,12.1,1.2,24.3,1.8,38.5h0Z"/>
</svg>