<?xml version="1.0" encoding="UTF-8"?>
<svg id="_图层_1" data-name="图层 1" xmlns="http://www.w3.org/2000/svg" version="1.1" viewBox="0 0 1110 1024">
  <path d="M164.31,725.1c59.8.01,112.61,39,130.23,96.15h70.1v-37.32l-9.85,8.37-24.36,20.54-20.63-24.41-82.65-98.04-20.54-24.39,24.45-20.56,379.97-320.13,24.36-20.54,20.58,24.41,18.96,28.08L986.18,74.66l-4.39-6.75,42.74-41.62,57.39,59.62-43.87,39.37-6.52-5.35-315.18,286.56,22.18,20.76,20.54,24.39-24.41,20.56-43.37,36.65,9.92-8.03,76.33,320.53h33.74c22.13-71.9,98.36-112.25,170.26-90.12,71.9,22.13,112.25,98.36,90.12,170.26-22.13,71.9-98.36,112.25-170.26,90.12-43.11-13.27-76.86-47.01-90.12-90.12H294.57c-22.12,71.92-98.35,112.29-170.27,90.18-71.92-22.12-112.29-98.35-90.18-170.27,17.58-57.17,70.4-96.19,130.21-96.2l-.02-.09ZM627.74,394.7l-331.17,278.96,41.51,49.25,331.17-278.96-41.51-49.27v.02ZM242.71,557.5l33.99,33.99,169.67-144.52-33.99-33.99-169.67,144.52Z"/>
</svg>