<svg id="图层_1" data-name="图层 1" xmlns="http://www.w3.org/2000/svg" viewBox="0 0 105 150"><defs><style>.cls-1{fill:#fff;}</style></defs><path class="cls-1" d="M7.5,12.5A2.5,2.5,0,1,0,10,15,2.5,2.5,0,0,0,7.5,12.5Zm0,4A1.5,1.5,0,1,1,9,15,1.5,1.5,0,0,1,7.5,16.5Z"/><path class="cls-1" d="M16,30H15V0h1Z"/><polygon class="cls-1" points="30 0 30 30 31 30 31 1 38 1 38 0 30 0"/><path class="cls-1" d="M60,1H46V30H45V0H60Z"/><path class="cls-1" d="M61,1V5h7V6H61V30H60V0H75V1Z"/><path class="cls-1" d="M76,1V5H90V6H76V30H75V0H90V1Z"/><path class="cls-1" d="M91,1V5h14V6H91v4h7v1H91V30H90V0h15V1Z"/><path class="cls-1" d="M31,31v4H45v1H31v4H45v1H31v4H45v1H31V60H30V30H45v1Z"/><path class="cls-1" d="M46,31v4H60v1H46v4H60v1H46v4H60v1H46v4h7v1H46v9H45V30H60v1Z"/><path class="cls-1" d="M1,31v4H15v1H1v4H15v1H1V60H0V30H15v1Z"/><path class="cls-1" d="M16,31v4H30v1H16v4H30v1H16v4h7v1H16V60H15V30H30v1Z"/><path class="cls-1" d="M74.5,30H60V60h1V35.85L74.67,31a.5.5,0,0,0,.32-.56A.49.49,0,0,0,74.5,30ZM61,34.79V31H71.61Z"/><path class="cls-1" d="M89.5,30H75V60h1V36h7V35H78.39l11.28-4a.5.5,0,0,0,.32-.56A.49.49,0,0,0,89.5,30ZM76,34.79V31H86.61Z"/><path class="cls-1" d="M105,90.41a.5.5,0,0,1-.32.56L93.39,95H98v1H91v24H90V90h14.5A.49.49,0,0,1,105,90.41Z"/><path class="cls-1" d="M105,35H93.39l11.28-4a.5.5,0,0,0,.32-.56.49.49,0,0,0-.49-.41H90V60h1V36h14ZM91,31h10.61L91,34.79Z"/><path class="cls-1" d="M15,126H1v24H0V120H14.5a.5.5,0,0,1,.17,1L3.39,125H15Z"/><path class="cls-1" d="M15,66V65H3.39l11.28-4a.5.5,0,0,0,.32-.56A.49.49,0,0,0,14.5,60H0V90H1V71H8V70H1V66ZM1,61H11.61L1,64.79Z"/><path class="cls-1" d="M30,66V65H18.39l11.28-4a.5.5,0,0,0,.32-.56A.49.49,0,0,0,29.5,60H15V90h1V71H30V70H16V66ZM16,61H26.61L16,64.79Z"/><path class="cls-1" d="M45,66V65H33.39l11.28-4a.5.5,0,0,0,.32-.56A.49.49,0,0,0,44.5,60H30V90h1V76h7V75H31V71H45V70H31V66ZM31,61H41.61L31,64.79Z"/><path class="cls-1" d="M16,126v4h7v1H16v19H15V120H29.5a.5.5,0,0,1,.17,1l-11.28,4H30v1Z"/><path class="cls-1" d="M31,126v4H45v1H31v19H30V120H44.5a.5.5,0,0,1,.17,1l-11.28,4H45v1Z"/><path class="cls-1" d="M46,126v4H60v1H46v4h7v1H46v14H45V120H59.5a.5.5,0,0,1,.17,1l-11.28,4H60v1Z"/><path class="cls-1" d="M60,66V65H48.39l11.28-4a.5.5,0,0,0,.32-.56A.49.49,0,0,0,59.5,60H45V90h1V76H60V75H46V71H60V70H46V66ZM46,61H56.61L46,64.79Z"/><path class="cls-1" d="M75,66V65H63.39l11.28-4a.5.5,0,0,0,.32-.56A.49.49,0,0,0,74.5,60H60V90h1V81h7V80H61V76H75V75H61V71H75V70H61V66ZM61,61H71.61L61,64.79Z"/><path class="cls-1" d="M90,66V65H78.39l11.28-4a.5.5,0,0,0,.32-.56A.49.49,0,0,0,89.5,60H75V90h1V81H90V80H76V76H90V75H76V71H90V70H76V66ZM76,61H86.61L76,64.79Z"/><path class="cls-1" d="M105,66V65H93.39l11.28-4a.5.5,0,0,0,.32-.56.49.49,0,0,0-.49-.41H90V90h1V86h7V85H91V81h14V80H91V76h14V75H91V71h14V70H91V66ZM91,61h10.61L91,64.79Z"/><path class="cls-1" d="M14.5,95H3.39l11.28-4a.5.5,0,0,0,.32-.56A.49.49,0,0,0,14.5,90H0v30H1V100.85L14.67,96a.5.5,0,0,0,.32-.56A.49.49,0,0,0,14.5,95ZM1,91H11.61L1,94.79Zm0,8.79V96H11.61Z"/><path class="cls-1" d="M29.5,95H18.39l11.28-4a.5.5,0,0,0,.32-.56A.49.49,0,0,0,29.5,90H15v30h1V101h7v-1H18.39l11.28-4a.5.5,0,0,0,.32-.56A.49.49,0,0,0,29.5,95ZM16,91H26.61L16,94.79Zm0,8.79V96H26.61Z"/><path class="cls-1" d="M45,100H33.39l11.28-4a.5.5,0,0,0,.32-.56A.49.49,0,0,0,44.5,95H33.39l11.28-4a.5.5,0,0,0,.32-.56A.49.49,0,0,0,44.5,90H30v30h1V101H45Zm-14-.21V96H41.61ZM31,91H41.61L31,94.79Z"/><path class="cls-1" d="M60,101v-1H48.39l11.28-4a.5.5,0,0,0,.32-.56A.49.49,0,0,0,59.5,95H48.39l11.28-4a.5.5,0,0,0,.32-.56A.49.49,0,0,0,59.5,90H45v30h1V105h7v-1H46v-3ZM46,99.79V96H56.61ZM46,91H56.61L46,94.79Z"/><path class="cls-1" d="M75,101v-1H63.39l11.28-4a.5.5,0,0,0,.32-.56A.49.49,0,0,0,74.5,95H63.39l11.28-4a.5.5,0,0,0,.32-.56A.49.49,0,0,0,74.5,90H60v30h1V105H75v-1H61v-3ZM61,99.79V96H71.61ZM61,91H71.61L61,94.79Z"/><path class="cls-1" d="M90,90.41a.5.5,0,0,1-.32.56L76,95.85V120H75V90H89.5A.49.49,0,0,1,90,90.41Z"/></svg>